<mxfile host="app.diagrams.net" modified="2021-05-24T13:35:23.849Z" agent="5.0 (Macintosh; Intel Mac OS X 10_15_7) AppleWebKit/537.36 (KHTML, like Gecko) Chrome/90.0.4430.212 Safari/537.36" etag="LLKg2LmhRQaZBzXYwuKz" version="14.7.0" type="github">
  <diagram id="9KTdAFgDJ_vjZ0cEy5rP" name="Page-1">
    <mxGraphModel dx="1577" dy="928" grid="1" gridSize="10" guides="1" tooltips="1" connect="1" arrows="1" fold="1" page="1" pageScale="1" pageWidth="3300" pageHeight="4681" math="0" shadow="0">
      <root>
        <mxCell id="0" />
        <mxCell id="1" parent="0" />
        <mxCell id="NzD18jO2ASg_sLe6eNkF-1" value="&lt;div&gt;&lt;br&gt;&lt;/div&gt;&lt;ul style=&quot;font-size: 32px&quot;&gt;&lt;li style=&quot;font-size: 32px&quot;&gt;Contributors(&lt;b&gt;Id_contributor&lt;/b&gt;&lt;u&gt;,&lt;/u&gt;&amp;nbsp;nome, descrizione, css, url_webservice, partita_iva, privacy_policy)&lt;/li&gt;&lt;li&gt;Contenuti(&lt;b&gt;Id_contenuto&lt;/b&gt;&lt;u&gt;,&lt;/u&gt;&amp;nbsp;head, foot,&amp;nbsp;&lt;u&gt;Id_contributor&lt;/u&gt;)&lt;/li&gt;&lt;li style=&quot;font-size: 32px&quot;&gt;Immagini(&lt;b&gt;Id_immagine, &lt;/b&gt;url, alt, descrizione,&amp;nbsp;&lt;u&gt;Id_contributor, Id_contenuto, Id_fornitore)&lt;/u&gt;&lt;/li&gt;&lt;li style=&quot;font-size: 32px&quot;&gt;Promozioni(&lt;b&gt;Id_promozione&lt;/b&gt;&lt;u&gt;,&lt;/u&gt;&amp;nbsp;descrizione,&lt;u&gt;&amp;nbsp;Id_contributor&lt;/u&gt; )&lt;/li&gt;&lt;li style=&quot;font-size: 32px&quot;&gt;QeA(&lt;b&gt;Id_QeA,&lt;/b&gt;&amp;nbsp;domanda, risposta,&amp;nbsp;&lt;u&gt;Id_contributor)&lt;/u&gt;&lt;/li&gt;&lt;li style=&quot;font-size: 32px&quot;&gt;Fornitori(&lt;b&gt;Id_fornitore, &lt;/b&gt;href, nome, url_webservice&lt;u&gt;)&lt;/u&gt;&lt;/li&gt;&lt;li style=&quot;font-size: 32px&quot;&gt;Contributors/Fornitori(&lt;b&gt;Id_contributor_fornitore&lt;/b&gt;, &lt;u&gt;Id_contributor&lt;/u&gt;, &lt;u&gt;Id_fornitore&lt;/u&gt;)&lt;/li&gt;&lt;/ul&gt;" style="text;strokeColor=none;fillColor=none;html=1;whiteSpace=wrap;verticalAlign=middle;overflow=hidden;rounded=0;sketch=0;fontColor=#1A1A1A;fontSize=32;" parent="1" vertex="1">
          <mxGeometry x="220" y="330" width="1320" height="1190" as="geometry" />
        </mxCell>
        <mxCell id="NzD18jO2ASg_sLe6eNkF-2" value="SCHEMA TABELLE" style="text;strokeColor=none;fillColor=none;html=1;fontSize=24;fontStyle=1;verticalAlign=middle;align=center;rounded=0;sketch=0;" parent="1" vertex="1">
          <mxGeometry x="660" y="570" width="100" height="40" as="geometry" />
        </mxCell>
      </root>
    </mxGraphModel>
  </diagram>
</mxfile>
